<mxfile host="app.diagrams.net" modified="2022-12-21T01:30:50.598Z" agent="5.0 (Windows)" version="20.7.4" etag="VKvznYjq7ufz7PWQHL09" type="github">
  <diagram id="qbCi3AaMVdtF7PMzWocv" name="PÃ¡gina-1">
    <mxGraphModel dx="2345" dy="679" grid="0" gridSize="10" guides="1" tooltips="1" connect="1" arrows="1" fold="1" page="1" pageScale="1" pageWidth="827" pageHeight="1169" math="0" shadow="0">
      <root>
        <mxCell id="0" />
        <mxCell id="1" parent="0" />
        <mxCell id="uqkEDbPmi3uGQbyHwn2v-7" value="PROPIETARIOS" style="shape=table;startSize=30;container=1;collapsible=1;childLayout=tableLayout;fixedRows=1;rowLines=0;fontStyle=1;align=center;resizeLast=1;shadow=1;strokeColor=#FF8330;" vertex="1" parent="1">
          <mxGeometry x="220" y="80" width="180" height="180" as="geometry" />
        </mxCell>
        <mxCell id="uqkEDbPmi3uGQbyHwn2v-8" value="" style="shape=tableRow;horizontal=0;startSize=0;swimlaneHead=0;swimlaneBody=0;fillColor=none;collapsible=0;dropTarget=0;points=[[0,0.5],[1,0.5]];portConstraint=eastwest;top=0;left=0;right=0;bottom=1;shadow=1;strokeColor=#FF8330;" vertex="1" parent="uqkEDbPmi3uGQbyHwn2v-7">
          <mxGeometry y="30" width="180" height="30" as="geometry" />
        </mxCell>
        <mxCell id="uqkEDbPmi3uGQbyHwn2v-9" value="PK" style="shape=partialRectangle;connectable=0;fillColor=none;top=0;left=0;bottom=0;right=0;fontStyle=1;overflow=hidden;shadow=1;strokeColor=#FF8330;" vertex="1" parent="uqkEDbPmi3uGQbyHwn2v-8">
          <mxGeometry width="30" height="30" as="geometry">
            <mxRectangle width="30" height="30" as="alternateBounds" />
          </mxGeometry>
        </mxCell>
        <mxCell id="uqkEDbPmi3uGQbyHwn2v-10" value="IDPropietario(INT)" style="shape=partialRectangle;connectable=0;fillColor=none;top=0;left=0;bottom=0;right=0;align=left;spacingLeft=6;fontStyle=5;overflow=hidden;shadow=1;strokeColor=#FF8330;" vertex="1" parent="uqkEDbPmi3uGQbyHwn2v-8">
          <mxGeometry x="30" width="150" height="30" as="geometry">
            <mxRectangle width="150" height="30" as="alternateBounds" />
          </mxGeometry>
        </mxCell>
        <mxCell id="uqkEDbPmi3uGQbyHwn2v-49" value="" style="shape=tableRow;horizontal=0;startSize=0;swimlaneHead=0;swimlaneBody=0;fillColor=none;collapsible=0;dropTarget=0;points=[[0,0.5],[1,0.5]];portConstraint=eastwest;top=0;left=0;right=0;bottom=0;shadow=1;strokeColor=#FF8330;" vertex="1" parent="uqkEDbPmi3uGQbyHwn2v-7">
          <mxGeometry y="60" width="180" height="30" as="geometry" />
        </mxCell>
        <mxCell id="uqkEDbPmi3uGQbyHwn2v-50" value="FK" style="shape=partialRectangle;connectable=0;fillColor=none;top=0;left=0;bottom=0;right=0;editable=1;overflow=hidden;shadow=1;strokeColor=#FF8330;" vertex="1" parent="uqkEDbPmi3uGQbyHwn2v-49">
          <mxGeometry width="30" height="30" as="geometry">
            <mxRectangle width="30" height="30" as="alternateBounds" />
          </mxGeometry>
        </mxCell>
        <mxCell id="uqkEDbPmi3uGQbyHwn2v-51" value="IDTIPOPropietario" style="shape=partialRectangle;connectable=0;fillColor=none;top=0;left=0;bottom=0;right=0;align=left;spacingLeft=6;overflow=hidden;shadow=1;strokeColor=#FF8330;" vertex="1" parent="uqkEDbPmi3uGQbyHwn2v-49">
          <mxGeometry x="30" width="150" height="30" as="geometry">
            <mxRectangle width="150" height="30" as="alternateBounds" />
          </mxGeometry>
        </mxCell>
        <mxCell id="uqkEDbPmi3uGQbyHwn2v-11" value="" style="shape=tableRow;horizontal=0;startSize=0;swimlaneHead=0;swimlaneBody=0;fillColor=none;collapsible=0;dropTarget=0;points=[[0,0.5],[1,0.5]];portConstraint=eastwest;top=0;left=0;right=0;bottom=0;shadow=1;strokeColor=#FF8330;" vertex="1" parent="uqkEDbPmi3uGQbyHwn2v-7">
          <mxGeometry y="90" width="180" height="30" as="geometry" />
        </mxCell>
        <mxCell id="uqkEDbPmi3uGQbyHwn2v-12" value="" style="shape=partialRectangle;connectable=0;fillColor=none;top=0;left=0;bottom=0;right=0;editable=1;overflow=hidden;shadow=1;strokeColor=#FF8330;" vertex="1" parent="uqkEDbPmi3uGQbyHwn2v-11">
          <mxGeometry width="30" height="30" as="geometry">
            <mxRectangle width="30" height="30" as="alternateBounds" />
          </mxGeometry>
        </mxCell>
        <mxCell id="uqkEDbPmi3uGQbyHwn2v-13" value="Nombre" style="shape=partialRectangle;connectable=0;fillColor=none;top=0;left=0;bottom=0;right=0;align=left;spacingLeft=6;overflow=hidden;shadow=1;strokeColor=#FF8330;" vertex="1" parent="uqkEDbPmi3uGQbyHwn2v-11">
          <mxGeometry x="30" width="150" height="30" as="geometry">
            <mxRectangle width="150" height="30" as="alternateBounds" />
          </mxGeometry>
        </mxCell>
        <mxCell id="uqkEDbPmi3uGQbyHwn2v-14" value="" style="shape=tableRow;horizontal=0;startSize=0;swimlaneHead=0;swimlaneBody=0;fillColor=none;collapsible=0;dropTarget=0;points=[[0,0.5],[1,0.5]];portConstraint=eastwest;top=0;left=0;right=0;bottom=0;shadow=1;strokeColor=#FF8330;" vertex="1" parent="uqkEDbPmi3uGQbyHwn2v-7">
          <mxGeometry y="120" width="180" height="30" as="geometry" />
        </mxCell>
        <mxCell id="uqkEDbPmi3uGQbyHwn2v-15" value="" style="shape=partialRectangle;connectable=0;fillColor=none;top=0;left=0;bottom=0;right=0;editable=1;overflow=hidden;shadow=1;strokeColor=#FF8330;" vertex="1" parent="uqkEDbPmi3uGQbyHwn2v-14">
          <mxGeometry width="30" height="30" as="geometry">
            <mxRectangle width="30" height="30" as="alternateBounds" />
          </mxGeometry>
        </mxCell>
        <mxCell id="uqkEDbPmi3uGQbyHwn2v-16" value="Apellidos" style="shape=partialRectangle;connectable=0;fillColor=none;top=0;left=0;bottom=0;right=0;align=left;spacingLeft=6;overflow=hidden;shadow=1;strokeColor=#FF8330;" vertex="1" parent="uqkEDbPmi3uGQbyHwn2v-14">
          <mxGeometry x="30" width="150" height="30" as="geometry">
            <mxRectangle width="150" height="30" as="alternateBounds" />
          </mxGeometry>
        </mxCell>
        <mxCell id="uqkEDbPmi3uGQbyHwn2v-17" value="" style="shape=tableRow;horizontal=0;startSize=0;swimlaneHead=0;swimlaneBody=0;fillColor=none;collapsible=0;dropTarget=0;points=[[0,0.5],[1,0.5]];portConstraint=eastwest;top=0;left=0;right=0;bottom=0;shadow=1;strokeColor=#FF8330;" vertex="1" parent="uqkEDbPmi3uGQbyHwn2v-7">
          <mxGeometry y="150" width="180" height="30" as="geometry" />
        </mxCell>
        <mxCell id="uqkEDbPmi3uGQbyHwn2v-18" value="" style="shape=partialRectangle;connectable=0;fillColor=none;top=0;left=0;bottom=0;right=0;editable=1;overflow=hidden;shadow=1;strokeColor=#FF8330;" vertex="1" parent="uqkEDbPmi3uGQbyHwn2v-17">
          <mxGeometry width="30" height="30" as="geometry">
            <mxRectangle width="30" height="30" as="alternateBounds" />
          </mxGeometry>
        </mxCell>
        <mxCell id="uqkEDbPmi3uGQbyHwn2v-19" value="DNI" style="shape=partialRectangle;connectable=0;fillColor=none;top=0;left=0;bottom=0;right=0;align=left;spacingLeft=6;overflow=hidden;shadow=1;strokeColor=#FF8330;" vertex="1" parent="uqkEDbPmi3uGQbyHwn2v-17">
          <mxGeometry x="30" width="150" height="30" as="geometry">
            <mxRectangle width="150" height="30" as="alternateBounds" />
          </mxGeometry>
        </mxCell>
        <mxCell id="uqkEDbPmi3uGQbyHwn2v-20" value="VEHICULOS" style="shape=table;startSize=30;container=1;collapsible=1;childLayout=tableLayout;fixedRows=1;rowLines=0;fontStyle=1;align=center;resizeLast=1;shadow=1;strokeColor=#FF8330;" vertex="1" parent="1">
          <mxGeometry x="766" y="83" width="180" height="180" as="geometry" />
        </mxCell>
        <mxCell id="uqkEDbPmi3uGQbyHwn2v-21" value="" style="shape=tableRow;horizontal=0;startSize=0;swimlaneHead=0;swimlaneBody=0;fillColor=none;collapsible=0;dropTarget=0;points=[[0,0.5],[1,0.5]];portConstraint=eastwest;top=0;left=0;right=0;bottom=1;shadow=1;strokeColor=#FF8330;" vertex="1" parent="uqkEDbPmi3uGQbyHwn2v-20">
          <mxGeometry y="30" width="180" height="30" as="geometry" />
        </mxCell>
        <mxCell id="uqkEDbPmi3uGQbyHwn2v-22" value="PK" style="shape=partialRectangle;connectable=0;fillColor=none;top=0;left=0;bottom=0;right=0;fontStyle=1;overflow=hidden;shadow=1;strokeColor=#FF8330;" vertex="1" parent="uqkEDbPmi3uGQbyHwn2v-21">
          <mxGeometry width="30" height="30" as="geometry">
            <mxRectangle width="30" height="30" as="alternateBounds" />
          </mxGeometry>
        </mxCell>
        <mxCell id="uqkEDbPmi3uGQbyHwn2v-23" value="IDVehiculo (INT)" style="shape=partialRectangle;connectable=0;fillColor=none;top=0;left=0;bottom=0;right=0;align=left;spacingLeft=6;fontStyle=5;overflow=hidden;shadow=1;strokeColor=#FF8330;" vertex="1" parent="uqkEDbPmi3uGQbyHwn2v-21">
          <mxGeometry x="30" width="150" height="30" as="geometry">
            <mxRectangle width="150" height="30" as="alternateBounds" />
          </mxGeometry>
        </mxCell>
        <mxCell id="uqkEDbPmi3uGQbyHwn2v-116" value="" style="shape=tableRow;horizontal=0;startSize=0;swimlaneHead=0;swimlaneBody=0;fillColor=none;collapsible=0;dropTarget=0;points=[[0,0.5],[1,0.5]];portConstraint=eastwest;top=0;left=0;right=0;bottom=0;shadow=1;strokeColor=#FF8330;" vertex="1" parent="uqkEDbPmi3uGQbyHwn2v-20">
          <mxGeometry y="60" width="180" height="30" as="geometry" />
        </mxCell>
        <mxCell id="uqkEDbPmi3uGQbyHwn2v-117" value="FK" style="shape=partialRectangle;connectable=0;fillColor=none;top=0;left=0;bottom=0;right=0;editable=1;overflow=hidden;shadow=1;strokeColor=#FF8330;" vertex="1" parent="uqkEDbPmi3uGQbyHwn2v-116">
          <mxGeometry width="30" height="30" as="geometry">
            <mxRectangle width="30" height="30" as="alternateBounds" />
          </mxGeometry>
        </mxCell>
        <mxCell id="uqkEDbPmi3uGQbyHwn2v-118" value="IDUsoVehicular" style="shape=partialRectangle;connectable=0;fillColor=none;top=0;left=0;bottom=0;right=0;align=left;spacingLeft=6;overflow=hidden;shadow=1;strokeColor=#FF8330;" vertex="1" parent="uqkEDbPmi3uGQbyHwn2v-116">
          <mxGeometry x="30" width="150" height="30" as="geometry">
            <mxRectangle width="150" height="30" as="alternateBounds" />
          </mxGeometry>
        </mxCell>
        <mxCell id="uqkEDbPmi3uGQbyHwn2v-24" value="" style="shape=tableRow;horizontal=0;startSize=0;swimlaneHead=0;swimlaneBody=0;fillColor=none;collapsible=0;dropTarget=0;points=[[0,0.5],[1,0.5]];portConstraint=eastwest;top=0;left=0;right=0;bottom=0;shadow=1;strokeColor=#FF8330;" vertex="1" parent="uqkEDbPmi3uGQbyHwn2v-20">
          <mxGeometry y="90" width="180" height="30" as="geometry" />
        </mxCell>
        <mxCell id="uqkEDbPmi3uGQbyHwn2v-25" value="" style="shape=partialRectangle;connectable=0;fillColor=none;top=0;left=0;bottom=0;right=0;editable=1;overflow=hidden;shadow=1;strokeColor=#FF8330;" vertex="1" parent="uqkEDbPmi3uGQbyHwn2v-24">
          <mxGeometry width="30" height="30" as="geometry">
            <mxRectangle width="30" height="30" as="alternateBounds" />
          </mxGeometry>
        </mxCell>
        <mxCell id="uqkEDbPmi3uGQbyHwn2v-26" value="matricula" style="shape=partialRectangle;connectable=0;fillColor=none;top=0;left=0;bottom=0;right=0;align=left;spacingLeft=6;overflow=hidden;shadow=1;strokeColor=#FF8330;" vertex="1" parent="uqkEDbPmi3uGQbyHwn2v-24">
          <mxGeometry x="30" width="150" height="30" as="geometry">
            <mxRectangle width="150" height="30" as="alternateBounds" />
          </mxGeometry>
        </mxCell>
        <mxCell id="uqkEDbPmi3uGQbyHwn2v-27" value="" style="shape=tableRow;horizontal=0;startSize=0;swimlaneHead=0;swimlaneBody=0;fillColor=none;collapsible=0;dropTarget=0;points=[[0,0.5],[1,0.5]];portConstraint=eastwest;top=0;left=0;right=0;bottom=0;shadow=1;strokeColor=#FF8330;" vertex="1" parent="uqkEDbPmi3uGQbyHwn2v-20">
          <mxGeometry y="120" width="180" height="30" as="geometry" />
        </mxCell>
        <mxCell id="uqkEDbPmi3uGQbyHwn2v-28" value="" style="shape=partialRectangle;connectable=0;fillColor=none;top=0;left=0;bottom=0;right=0;editable=1;overflow=hidden;shadow=1;strokeColor=#FF8330;" vertex="1" parent="uqkEDbPmi3uGQbyHwn2v-27">
          <mxGeometry width="30" height="30" as="geometry">
            <mxRectangle width="30" height="30" as="alternateBounds" />
          </mxGeometry>
        </mxCell>
        <mxCell id="uqkEDbPmi3uGQbyHwn2v-29" value="modelo" style="shape=partialRectangle;connectable=0;fillColor=none;top=0;left=0;bottom=0;right=0;align=left;spacingLeft=6;overflow=hidden;shadow=1;strokeColor=#FF8330;" vertex="1" parent="uqkEDbPmi3uGQbyHwn2v-27">
          <mxGeometry x="30" width="150" height="30" as="geometry">
            <mxRectangle width="150" height="30" as="alternateBounds" />
          </mxGeometry>
        </mxCell>
        <mxCell id="uqkEDbPmi3uGQbyHwn2v-30" value="" style="shape=tableRow;horizontal=0;startSize=0;swimlaneHead=0;swimlaneBody=0;fillColor=none;collapsible=0;dropTarget=0;points=[[0,0.5],[1,0.5]];portConstraint=eastwest;top=0;left=0;right=0;bottom=0;shadow=1;strokeColor=#FF8330;" vertex="1" parent="uqkEDbPmi3uGQbyHwn2v-20">
          <mxGeometry y="150" width="180" height="30" as="geometry" />
        </mxCell>
        <mxCell id="uqkEDbPmi3uGQbyHwn2v-31" value="" style="shape=partialRectangle;connectable=0;fillColor=none;top=0;left=0;bottom=0;right=0;editable=1;overflow=hidden;shadow=1;strokeColor=#FF8330;" vertex="1" parent="uqkEDbPmi3uGQbyHwn2v-30">
          <mxGeometry width="30" height="30" as="geometry">
            <mxRectangle width="30" height="30" as="alternateBounds" />
          </mxGeometry>
        </mxCell>
        <mxCell id="uqkEDbPmi3uGQbyHwn2v-32" value="IDUso" style="shape=partialRectangle;connectable=0;fillColor=none;top=0;left=0;bottom=0;right=0;align=left;spacingLeft=6;overflow=hidden;shadow=1;strokeColor=#FF8330;" vertex="1" parent="uqkEDbPmi3uGQbyHwn2v-30">
          <mxGeometry x="30" width="150" height="30" as="geometry">
            <mxRectangle width="150" height="30" as="alternateBounds" />
          </mxGeometry>
        </mxCell>
        <mxCell id="uqkEDbPmi3uGQbyHwn2v-33" value="USOVEHICULARES" style="shape=table;startSize=30;container=1;collapsible=1;childLayout=tableLayout;fixedRows=1;rowLines=0;fontStyle=1;align=center;resizeLast=1;shadow=1;strokeColor=#FF8330;" vertex="1" parent="1">
          <mxGeometry x="1076" y="89" width="180" height="90" as="geometry" />
        </mxCell>
        <mxCell id="uqkEDbPmi3uGQbyHwn2v-34" value="" style="shape=tableRow;horizontal=0;startSize=0;swimlaneHead=0;swimlaneBody=0;fillColor=none;collapsible=0;dropTarget=0;points=[[0,0.5],[1,0.5]];portConstraint=eastwest;top=0;left=0;right=0;bottom=1;shadow=1;strokeColor=#FF8330;" vertex="1" parent="uqkEDbPmi3uGQbyHwn2v-33">
          <mxGeometry y="30" width="180" height="30" as="geometry" />
        </mxCell>
        <mxCell id="uqkEDbPmi3uGQbyHwn2v-35" value="PK" style="shape=partialRectangle;connectable=0;fillColor=none;top=0;left=0;bottom=0;right=0;fontStyle=1;overflow=hidden;shadow=1;strokeColor=#FF8330;" vertex="1" parent="uqkEDbPmi3uGQbyHwn2v-34">
          <mxGeometry width="30" height="30" as="geometry">
            <mxRectangle width="30" height="30" as="alternateBounds" />
          </mxGeometry>
        </mxCell>
        <mxCell id="uqkEDbPmi3uGQbyHwn2v-36" value="IDUsoVehicular(INT)" style="shape=partialRectangle;connectable=0;fillColor=none;top=0;left=0;bottom=0;right=0;align=left;spacingLeft=6;fontStyle=5;overflow=hidden;shadow=1;strokeColor=#FF8330;" vertex="1" parent="uqkEDbPmi3uGQbyHwn2v-34">
          <mxGeometry x="30" width="150" height="30" as="geometry">
            <mxRectangle width="150" height="30" as="alternateBounds" />
          </mxGeometry>
        </mxCell>
        <mxCell id="uqkEDbPmi3uGQbyHwn2v-37" value="" style="shape=tableRow;horizontal=0;startSize=0;swimlaneHead=0;swimlaneBody=0;fillColor=none;collapsible=0;dropTarget=0;points=[[0,0.5],[1,0.5]];portConstraint=eastwest;top=0;left=0;right=0;bottom=0;shadow=1;strokeColor=#FF8330;" vertex="1" parent="uqkEDbPmi3uGQbyHwn2v-33">
          <mxGeometry y="60" width="180" height="30" as="geometry" />
        </mxCell>
        <mxCell id="uqkEDbPmi3uGQbyHwn2v-38" value="" style="shape=partialRectangle;connectable=0;fillColor=none;top=0;left=0;bottom=0;right=0;editable=1;overflow=hidden;shadow=1;strokeColor=#FF8330;" vertex="1" parent="uqkEDbPmi3uGQbyHwn2v-37">
          <mxGeometry width="30" height="30" as="geometry">
            <mxRectangle width="30" height="30" as="alternateBounds" />
          </mxGeometry>
        </mxCell>
        <mxCell id="uqkEDbPmi3uGQbyHwn2v-39" value="TipodeUso" style="shape=partialRectangle;connectable=0;fillColor=none;top=0;left=0;bottom=0;right=0;align=left;spacingLeft=6;overflow=hidden;shadow=1;strokeColor=#FF8330;" vertex="1" parent="uqkEDbPmi3uGQbyHwn2v-37">
          <mxGeometry x="30" width="150" height="30" as="geometry">
            <mxRectangle width="150" height="30" as="alternateBounds" />
          </mxGeometry>
        </mxCell>
        <mxCell id="uqkEDbPmi3uGQbyHwn2v-52" value="TiposdeInfracciones" style="shape=table;startSize=30;container=1;collapsible=1;childLayout=tableLayout;fixedRows=1;rowLines=0;fontStyle=1;align=center;resizeLast=1;shadow=1;strokeColor=#FF8330;" vertex="1" parent="1">
          <mxGeometry x="220" y="310" width="180" height="120" as="geometry" />
        </mxCell>
        <mxCell id="uqkEDbPmi3uGQbyHwn2v-53" value="" style="shape=tableRow;horizontal=0;startSize=0;swimlaneHead=0;swimlaneBody=0;fillColor=none;collapsible=0;dropTarget=0;points=[[0,0.5],[1,0.5]];portConstraint=eastwest;top=0;left=0;right=0;bottom=1;shadow=1;strokeColor=#FF8330;" vertex="1" parent="uqkEDbPmi3uGQbyHwn2v-52">
          <mxGeometry y="30" width="180" height="30" as="geometry" />
        </mxCell>
        <mxCell id="uqkEDbPmi3uGQbyHwn2v-54" value="PK" style="shape=partialRectangle;connectable=0;fillColor=none;top=0;left=0;bottom=0;right=0;fontStyle=1;overflow=hidden;shadow=1;strokeColor=#FF8330;" vertex="1" parent="uqkEDbPmi3uGQbyHwn2v-53">
          <mxGeometry width="30" height="30" as="geometry">
            <mxRectangle width="30" height="30" as="alternateBounds" />
          </mxGeometry>
        </mxCell>
        <mxCell id="uqkEDbPmi3uGQbyHwn2v-55" value="IDTipoInfraccion (INT)" style="shape=partialRectangle;connectable=0;fillColor=none;top=0;left=0;bottom=0;right=0;align=left;spacingLeft=6;fontStyle=5;overflow=hidden;shadow=1;strokeColor=#FF8330;" vertex="1" parent="uqkEDbPmi3uGQbyHwn2v-53">
          <mxGeometry x="30" width="150" height="30" as="geometry">
            <mxRectangle width="150" height="30" as="alternateBounds" />
          </mxGeometry>
        </mxCell>
        <mxCell id="uqkEDbPmi3uGQbyHwn2v-56" value="" style="shape=tableRow;horizontal=0;startSize=0;swimlaneHead=0;swimlaneBody=0;fillColor=none;collapsible=0;dropTarget=0;points=[[0,0.5],[1,0.5]];portConstraint=eastwest;top=0;left=0;right=0;bottom=0;shadow=1;strokeColor=#FF8330;" vertex="1" parent="uqkEDbPmi3uGQbyHwn2v-52">
          <mxGeometry y="60" width="180" height="30" as="geometry" />
        </mxCell>
        <mxCell id="uqkEDbPmi3uGQbyHwn2v-57" value="" style="shape=partialRectangle;connectable=0;fillColor=none;top=0;left=0;bottom=0;right=0;editable=1;overflow=hidden;shadow=1;strokeColor=#FF8330;" vertex="1" parent="uqkEDbPmi3uGQbyHwn2v-56">
          <mxGeometry width="30" height="30" as="geometry">
            <mxRectangle width="30" height="30" as="alternateBounds" />
          </mxGeometry>
        </mxCell>
        <mxCell id="uqkEDbPmi3uGQbyHwn2v-58" value="NombreInfraccion" style="shape=partialRectangle;connectable=0;fillColor=none;top=0;left=0;bottom=0;right=0;align=left;spacingLeft=6;overflow=hidden;shadow=1;strokeColor=#FF8330;" vertex="1" parent="uqkEDbPmi3uGQbyHwn2v-56">
          <mxGeometry x="30" width="150" height="30" as="geometry">
            <mxRectangle width="150" height="30" as="alternateBounds" />
          </mxGeometry>
        </mxCell>
        <mxCell id="uqkEDbPmi3uGQbyHwn2v-59" value="" style="shape=tableRow;horizontal=0;startSize=0;swimlaneHead=0;swimlaneBody=0;fillColor=none;collapsible=0;dropTarget=0;points=[[0,0.5],[1,0.5]];portConstraint=eastwest;top=0;left=0;right=0;bottom=0;shadow=1;strokeColor=#FF8330;" vertex="1" parent="uqkEDbPmi3uGQbyHwn2v-52">
          <mxGeometry y="90" width="180" height="30" as="geometry" />
        </mxCell>
        <mxCell id="uqkEDbPmi3uGQbyHwn2v-60" value="" style="shape=partialRectangle;connectable=0;fillColor=none;top=0;left=0;bottom=0;right=0;editable=1;overflow=hidden;shadow=1;strokeColor=#FF8330;" vertex="1" parent="uqkEDbPmi3uGQbyHwn2v-59">
          <mxGeometry width="30" height="30" as="geometry">
            <mxRectangle width="30" height="30" as="alternateBounds" />
          </mxGeometry>
        </mxCell>
        <mxCell id="uqkEDbPmi3uGQbyHwn2v-61" value="MagnitudInfraccion" style="shape=partialRectangle;connectable=0;fillColor=none;top=0;left=0;bottom=0;right=0;align=left;spacingLeft=6;overflow=hidden;shadow=1;strokeColor=#FF8330;" vertex="1" parent="uqkEDbPmi3uGQbyHwn2v-59">
          <mxGeometry x="30" width="150" height="30" as="geometry">
            <mxRectangle width="150" height="30" as="alternateBounds" />
          </mxGeometry>
        </mxCell>
        <mxCell id="uqkEDbPmi3uGQbyHwn2v-65" value="Fechas" style="shape=table;startSize=30;container=1;collapsible=1;childLayout=tableLayout;fixedRows=1;rowLines=0;fontStyle=1;align=center;resizeLast=1;shadow=1;strokeColor=#FF8330;" vertex="1" parent="1">
          <mxGeometry x="869" y="355" width="180" height="240" as="geometry" />
        </mxCell>
        <mxCell id="uqkEDbPmi3uGQbyHwn2v-66" value="" style="shape=tableRow;horizontal=0;startSize=0;swimlaneHead=0;swimlaneBody=0;fillColor=none;collapsible=0;dropTarget=0;points=[[0,0.5],[1,0.5]];portConstraint=eastwest;top=0;left=0;right=0;bottom=1;shadow=1;strokeColor=#FF8330;" vertex="1" parent="uqkEDbPmi3uGQbyHwn2v-65">
          <mxGeometry y="30" width="180" height="30" as="geometry" />
        </mxCell>
        <mxCell id="uqkEDbPmi3uGQbyHwn2v-67" value="PK" style="shape=partialRectangle;connectable=0;fillColor=none;top=0;left=0;bottom=0;right=0;fontStyle=1;overflow=hidden;shadow=1;strokeColor=#FF8330;" vertex="1" parent="uqkEDbPmi3uGQbyHwn2v-66">
          <mxGeometry width="30" height="30" as="geometry">
            <mxRectangle width="30" height="30" as="alternateBounds" />
          </mxGeometry>
        </mxCell>
        <mxCell id="uqkEDbPmi3uGQbyHwn2v-68" value="IDFecha(FECHA)" style="shape=partialRectangle;connectable=0;fillColor=none;top=0;left=0;bottom=0;right=0;align=left;spacingLeft=6;fontStyle=5;overflow=hidden;shadow=1;strokeColor=#FF8330;" vertex="1" parent="uqkEDbPmi3uGQbyHwn2v-66">
          <mxGeometry x="30" width="150" height="30" as="geometry">
            <mxRectangle width="150" height="30" as="alternateBounds" />
          </mxGeometry>
        </mxCell>
        <mxCell id="uqkEDbPmi3uGQbyHwn2v-69" value="" style="shape=tableRow;horizontal=0;startSize=0;swimlaneHead=0;swimlaneBody=0;fillColor=none;collapsible=0;dropTarget=0;points=[[0,0.5],[1,0.5]];portConstraint=eastwest;top=0;left=0;right=0;bottom=0;shadow=1;strokeColor=#FF8330;" vertex="1" parent="uqkEDbPmi3uGQbyHwn2v-65">
          <mxGeometry y="60" width="180" height="30" as="geometry" />
        </mxCell>
        <mxCell id="uqkEDbPmi3uGQbyHwn2v-70" value="" style="shape=partialRectangle;connectable=0;fillColor=none;top=0;left=0;bottom=0;right=0;editable=1;overflow=hidden;shadow=1;strokeColor=#FF8330;" vertex="1" parent="uqkEDbPmi3uGQbyHwn2v-69">
          <mxGeometry width="30" height="30" as="geometry">
            <mxRectangle width="30" height="30" as="alternateBounds" />
          </mxGeometry>
        </mxCell>
        <mxCell id="uqkEDbPmi3uGQbyHwn2v-71" value="Dia_Fecha (INT)" style="shape=partialRectangle;connectable=0;fillColor=none;top=0;left=0;bottom=0;right=0;align=left;spacingLeft=6;overflow=hidden;shadow=1;strokeColor=#FF8330;" vertex="1" parent="uqkEDbPmi3uGQbyHwn2v-69">
          <mxGeometry x="30" width="150" height="30" as="geometry">
            <mxRectangle width="150" height="30" as="alternateBounds" />
          </mxGeometry>
        </mxCell>
        <mxCell id="uqkEDbPmi3uGQbyHwn2v-72" value="" style="shape=tableRow;horizontal=0;startSize=0;swimlaneHead=0;swimlaneBody=0;fillColor=none;collapsible=0;dropTarget=0;points=[[0,0.5],[1,0.5]];portConstraint=eastwest;top=0;left=0;right=0;bottom=0;shadow=1;strokeColor=#FF8330;" vertex="1" parent="uqkEDbPmi3uGQbyHwn2v-65">
          <mxGeometry y="90" width="180" height="30" as="geometry" />
        </mxCell>
        <mxCell id="uqkEDbPmi3uGQbyHwn2v-73" value="" style="shape=partialRectangle;connectable=0;fillColor=none;top=0;left=0;bottom=0;right=0;editable=1;overflow=hidden;shadow=1;strokeColor=#FF8330;" vertex="1" parent="uqkEDbPmi3uGQbyHwn2v-72">
          <mxGeometry width="30" height="30" as="geometry">
            <mxRectangle width="30" height="30" as="alternateBounds" />
          </mxGeometry>
        </mxCell>
        <mxCell id="uqkEDbPmi3uGQbyHwn2v-74" value="Semana_Fecha (INT)" style="shape=partialRectangle;connectable=0;fillColor=none;top=0;left=0;bottom=0;right=0;align=left;spacingLeft=6;overflow=hidden;shadow=1;strokeColor=#FF8330;" vertex="1" parent="uqkEDbPmi3uGQbyHwn2v-72">
          <mxGeometry x="30" width="150" height="30" as="geometry">
            <mxRectangle width="150" height="30" as="alternateBounds" />
          </mxGeometry>
        </mxCell>
        <mxCell id="uqkEDbPmi3uGQbyHwn2v-75" value="" style="shape=tableRow;horizontal=0;startSize=0;swimlaneHead=0;swimlaneBody=0;fillColor=none;collapsible=0;dropTarget=0;points=[[0,0.5],[1,0.5]];portConstraint=eastwest;top=0;left=0;right=0;bottom=0;shadow=1;strokeColor=#FF8330;" vertex="1" parent="uqkEDbPmi3uGQbyHwn2v-65">
          <mxGeometry y="120" width="180" height="30" as="geometry" />
        </mxCell>
        <mxCell id="uqkEDbPmi3uGQbyHwn2v-76" value="" style="shape=partialRectangle;connectable=0;fillColor=none;top=0;left=0;bottom=0;right=0;editable=1;overflow=hidden;shadow=1;strokeColor=#FF8330;" vertex="1" parent="uqkEDbPmi3uGQbyHwn2v-75">
          <mxGeometry width="30" height="30" as="geometry">
            <mxRectangle width="30" height="30" as="alternateBounds" />
          </mxGeometry>
        </mxCell>
        <mxCell id="uqkEDbPmi3uGQbyHwn2v-77" value="Mes_Fecha (INT)" style="shape=partialRectangle;connectable=0;fillColor=none;top=0;left=0;bottom=0;right=0;align=left;spacingLeft=6;overflow=hidden;shadow=1;strokeColor=#FF8330;" vertex="1" parent="uqkEDbPmi3uGQbyHwn2v-75">
          <mxGeometry x="30" width="150" height="30" as="geometry">
            <mxRectangle width="150" height="30" as="alternateBounds" />
          </mxGeometry>
        </mxCell>
        <mxCell id="uqkEDbPmi3uGQbyHwn2v-84" value="" style="shape=tableRow;horizontal=0;startSize=0;swimlaneHead=0;swimlaneBody=0;fillColor=none;collapsible=0;dropTarget=0;points=[[0,0.5],[1,0.5]];portConstraint=eastwest;top=0;left=0;right=0;bottom=0;shadow=1;strokeColor=#FF8330;" vertex="1" parent="uqkEDbPmi3uGQbyHwn2v-65">
          <mxGeometry y="150" width="180" height="30" as="geometry" />
        </mxCell>
        <mxCell id="uqkEDbPmi3uGQbyHwn2v-85" value="" style="shape=partialRectangle;connectable=0;fillColor=none;top=0;left=0;bottom=0;right=0;editable=1;overflow=hidden;shadow=1;strokeColor=#FF8330;" vertex="1" parent="uqkEDbPmi3uGQbyHwn2v-84">
          <mxGeometry width="30" height="30" as="geometry">
            <mxRectangle width="30" height="30" as="alternateBounds" />
          </mxGeometry>
        </mxCell>
        <mxCell id="uqkEDbPmi3uGQbyHwn2v-86" value="Trimestre_Fecha" style="shape=partialRectangle;connectable=0;fillColor=none;top=0;left=0;bottom=0;right=0;align=left;spacingLeft=6;overflow=hidden;shadow=1;strokeColor=#FF8330;" vertex="1" parent="uqkEDbPmi3uGQbyHwn2v-84">
          <mxGeometry x="30" width="150" height="30" as="geometry">
            <mxRectangle width="150" height="30" as="alternateBounds" />
          </mxGeometry>
        </mxCell>
        <mxCell id="uqkEDbPmi3uGQbyHwn2v-78" value="" style="shape=tableRow;horizontal=0;startSize=0;swimlaneHead=0;swimlaneBody=0;fillColor=none;collapsible=0;dropTarget=0;points=[[0,0.5],[1,0.5]];portConstraint=eastwest;top=0;left=0;right=0;bottom=0;shadow=1;strokeColor=#FF8330;" vertex="1" parent="uqkEDbPmi3uGQbyHwn2v-65">
          <mxGeometry y="180" width="180" height="30" as="geometry" />
        </mxCell>
        <mxCell id="uqkEDbPmi3uGQbyHwn2v-79" value="" style="shape=partialRectangle;connectable=0;fillColor=none;top=0;left=0;bottom=0;right=0;editable=1;overflow=hidden;shadow=1;strokeColor=#FF8330;" vertex="1" parent="uqkEDbPmi3uGQbyHwn2v-78">
          <mxGeometry width="30" height="30" as="geometry">
            <mxRectangle width="30" height="30" as="alternateBounds" />
          </mxGeometry>
        </mxCell>
        <mxCell id="uqkEDbPmi3uGQbyHwn2v-80" value="Semestral_Fecha" style="shape=partialRectangle;connectable=0;fillColor=none;top=0;left=0;bottom=0;right=0;align=left;spacingLeft=6;overflow=hidden;shadow=1;strokeColor=#FF8330;" vertex="1" parent="uqkEDbPmi3uGQbyHwn2v-78">
          <mxGeometry x="30" width="150" height="30" as="geometry">
            <mxRectangle width="150" height="30" as="alternateBounds" />
          </mxGeometry>
        </mxCell>
        <mxCell id="uqkEDbPmi3uGQbyHwn2v-81" value="" style="shape=tableRow;horizontal=0;startSize=0;swimlaneHead=0;swimlaneBody=0;fillColor=none;collapsible=0;dropTarget=0;points=[[0,0.5],[1,0.5]];portConstraint=eastwest;top=0;left=0;right=0;bottom=0;shadow=1;strokeColor=#FF8330;" vertex="1" parent="uqkEDbPmi3uGQbyHwn2v-65">
          <mxGeometry y="210" width="180" height="30" as="geometry" />
        </mxCell>
        <mxCell id="uqkEDbPmi3uGQbyHwn2v-82" value="" style="shape=partialRectangle;connectable=0;fillColor=none;top=0;left=0;bottom=0;right=0;editable=1;overflow=hidden;shadow=1;strokeColor=#FF8330;" vertex="1" parent="uqkEDbPmi3uGQbyHwn2v-81">
          <mxGeometry width="30" height="30" as="geometry">
            <mxRectangle width="30" height="30" as="alternateBounds" />
          </mxGeometry>
        </mxCell>
        <mxCell id="uqkEDbPmi3uGQbyHwn2v-83" value="Anual_Fecha (INT)" style="shape=partialRectangle;connectable=0;fillColor=none;top=0;left=0;bottom=0;right=0;align=left;spacingLeft=6;overflow=hidden;shadow=1;strokeColor=#FF8330;" vertex="1" parent="uqkEDbPmi3uGQbyHwn2v-81">
          <mxGeometry x="30" width="150" height="30" as="geometry">
            <mxRectangle width="150" height="30" as="alternateBounds" />
          </mxGeometry>
        </mxCell>
        <mxCell id="uqkEDbPmi3uGQbyHwn2v-109" value="PROPIETARIOSTIPOS" style="shape=table;startSize=30;container=1;collapsible=1;childLayout=tableLayout;fixedRows=1;rowLines=0;fontStyle=1;align=center;resizeLast=1;shadow=1;strokeColor=#FF8330;" vertex="1" parent="1">
          <mxGeometry x="-30" y="80" width="180" height="90" as="geometry" />
        </mxCell>
        <mxCell id="uqkEDbPmi3uGQbyHwn2v-110" value="" style="shape=tableRow;horizontal=0;startSize=0;swimlaneHead=0;swimlaneBody=0;fillColor=none;collapsible=0;dropTarget=0;points=[[0,0.5],[1,0.5]];portConstraint=eastwest;top=0;left=0;right=0;bottom=1;shadow=1;strokeColor=#FF8330;" vertex="1" parent="uqkEDbPmi3uGQbyHwn2v-109">
          <mxGeometry y="30" width="180" height="30" as="geometry" />
        </mxCell>
        <mxCell id="uqkEDbPmi3uGQbyHwn2v-111" value="PK" style="shape=partialRectangle;connectable=0;fillColor=none;top=0;left=0;bottom=0;right=0;fontStyle=1;overflow=hidden;shadow=1;strokeColor=#FF8330;" vertex="1" parent="uqkEDbPmi3uGQbyHwn2v-110">
          <mxGeometry width="30" height="30" as="geometry">
            <mxRectangle width="30" height="30" as="alternateBounds" />
          </mxGeometry>
        </mxCell>
        <mxCell id="uqkEDbPmi3uGQbyHwn2v-112" value="IDTIPOPropietario (INT)" style="shape=partialRectangle;connectable=0;fillColor=none;top=0;left=0;bottom=0;right=0;align=left;spacingLeft=6;fontStyle=5;overflow=hidden;shadow=1;strokeColor=#FF8330;" vertex="1" parent="uqkEDbPmi3uGQbyHwn2v-110">
          <mxGeometry x="30" width="150" height="30" as="geometry">
            <mxRectangle width="150" height="30" as="alternateBounds" />
          </mxGeometry>
        </mxCell>
        <mxCell id="uqkEDbPmi3uGQbyHwn2v-113" value="" style="shape=tableRow;horizontal=0;startSize=0;swimlaneHead=0;swimlaneBody=0;fillColor=none;collapsible=0;dropTarget=0;points=[[0,0.5],[1,0.5]];portConstraint=eastwest;top=0;left=0;right=0;bottom=0;shadow=1;strokeColor=#FF8330;" vertex="1" parent="uqkEDbPmi3uGQbyHwn2v-109">
          <mxGeometry y="60" width="180" height="30" as="geometry" />
        </mxCell>
        <mxCell id="uqkEDbPmi3uGQbyHwn2v-114" value="" style="shape=partialRectangle;connectable=0;fillColor=none;top=0;left=0;bottom=0;right=0;editable=1;overflow=hidden;shadow=1;strokeColor=#FF8330;" vertex="1" parent="uqkEDbPmi3uGQbyHwn2v-113">
          <mxGeometry width="30" height="30" as="geometry">
            <mxRectangle width="30" height="30" as="alternateBounds" />
          </mxGeometry>
        </mxCell>
        <mxCell id="uqkEDbPmi3uGQbyHwn2v-115" value="TipoPropietario" style="shape=partialRectangle;connectable=0;fillColor=none;top=0;left=0;bottom=0;right=0;align=left;spacingLeft=6;overflow=hidden;shadow=1;strokeColor=#FF8330;" vertex="1" parent="uqkEDbPmi3uGQbyHwn2v-113">
          <mxGeometry x="30" width="150" height="30" as="geometry">
            <mxRectangle width="150" height="30" as="alternateBounds" />
          </mxGeometry>
        </mxCell>
        <mxCell id="uqkEDbPmi3uGQbyHwn2v-119" value="HECHOS" style="shape=table;startSize=30;container=1;collapsible=1;childLayout=tableLayout;fixedRows=1;rowLines=0;fontStyle=1;align=center;resizeLast=1;shadow=1;strokeColor=#FF8330;fillColor=#FF4C30;" vertex="1" parent="1">
          <mxGeometry x="506" y="186" width="180" height="270" as="geometry" />
        </mxCell>
        <mxCell id="uqkEDbPmi3uGQbyHwn2v-120" value="" style="shape=tableRow;horizontal=0;startSize=0;swimlaneHead=0;swimlaneBody=0;fillColor=none;collapsible=0;dropTarget=0;points=[[0,0.5],[1,0.5]];portConstraint=eastwest;top=0;left=0;right=0;bottom=1;shadow=1;strokeColor=#FF8330;" vertex="1" parent="uqkEDbPmi3uGQbyHwn2v-119">
          <mxGeometry y="30" width="180" height="30" as="geometry" />
        </mxCell>
        <mxCell id="uqkEDbPmi3uGQbyHwn2v-121" value="PK" style="shape=partialRectangle;connectable=0;fillColor=none;top=0;left=0;bottom=0;right=0;fontStyle=1;overflow=hidden;shadow=1;strokeColor=#FF8330;" vertex="1" parent="uqkEDbPmi3uGQbyHwn2v-120">
          <mxGeometry width="30" height="30" as="geometry">
            <mxRectangle width="30" height="30" as="alternateBounds" />
          </mxGeometry>
        </mxCell>
        <mxCell id="uqkEDbPmi3uGQbyHwn2v-122" value="IDInfraccion" style="shape=partialRectangle;connectable=0;fillColor=none;top=0;left=0;bottom=0;right=0;align=left;spacingLeft=6;fontStyle=5;overflow=hidden;shadow=1;strokeColor=#FF8330;" vertex="1" parent="uqkEDbPmi3uGQbyHwn2v-120">
          <mxGeometry x="30" width="150" height="30" as="geometry">
            <mxRectangle width="150" height="30" as="alternateBounds" />
          </mxGeometry>
        </mxCell>
        <mxCell id="uqkEDbPmi3uGQbyHwn2v-123" value="" style="shape=tableRow;horizontal=0;startSize=0;swimlaneHead=0;swimlaneBody=0;fillColor=none;collapsible=0;dropTarget=0;points=[[0,0.5],[1,0.5]];portConstraint=eastwest;top=0;left=0;right=0;bottom=0;shadow=1;strokeColor=#FF8330;" vertex="1" parent="uqkEDbPmi3uGQbyHwn2v-119">
          <mxGeometry y="60" width="180" height="30" as="geometry" />
        </mxCell>
        <mxCell id="uqkEDbPmi3uGQbyHwn2v-124" value="FK" style="shape=partialRectangle;connectable=0;fillColor=none;top=0;left=0;bottom=0;right=0;editable=1;overflow=hidden;shadow=1;strokeColor=#FF8330;" vertex="1" parent="uqkEDbPmi3uGQbyHwn2v-123">
          <mxGeometry width="30" height="30" as="geometry">
            <mxRectangle width="30" height="30" as="alternateBounds" />
          </mxGeometry>
        </mxCell>
        <mxCell id="uqkEDbPmi3uGQbyHwn2v-125" value="IDVehiculo (INT)" style="shape=partialRectangle;connectable=0;fillColor=none;top=0;left=0;bottom=0;right=0;align=left;spacingLeft=6;overflow=hidden;shadow=1;strokeColor=#FF8330;" vertex="1" parent="uqkEDbPmi3uGQbyHwn2v-123">
          <mxGeometry x="30" width="150" height="30" as="geometry">
            <mxRectangle width="150" height="30" as="alternateBounds" />
          </mxGeometry>
        </mxCell>
        <mxCell id="uqkEDbPmi3uGQbyHwn2v-126" value="" style="shape=tableRow;horizontal=0;startSize=0;swimlaneHead=0;swimlaneBody=0;fillColor=none;collapsible=0;dropTarget=0;points=[[0,0.5],[1,0.5]];portConstraint=eastwest;top=0;left=0;right=0;bottom=0;shadow=1;strokeColor=#FF8330;" vertex="1" parent="uqkEDbPmi3uGQbyHwn2v-119">
          <mxGeometry y="90" width="180" height="30" as="geometry" />
        </mxCell>
        <mxCell id="uqkEDbPmi3uGQbyHwn2v-127" value="FK" style="shape=partialRectangle;connectable=0;fillColor=none;top=0;left=0;bottom=0;right=0;editable=1;overflow=hidden;shadow=1;strokeColor=#FF8330;" vertex="1" parent="uqkEDbPmi3uGQbyHwn2v-126">
          <mxGeometry width="30" height="30" as="geometry">
            <mxRectangle width="30" height="30" as="alternateBounds" />
          </mxGeometry>
        </mxCell>
        <mxCell id="uqkEDbPmi3uGQbyHwn2v-128" value="IDPropietario(INT)" style="shape=partialRectangle;connectable=0;fillColor=none;top=0;left=0;bottom=0;right=0;align=left;spacingLeft=6;overflow=hidden;shadow=1;strokeColor=#FF8330;" vertex="1" parent="uqkEDbPmi3uGQbyHwn2v-126">
          <mxGeometry x="30" width="150" height="30" as="geometry">
            <mxRectangle width="150" height="30" as="alternateBounds" />
          </mxGeometry>
        </mxCell>
        <mxCell id="uqkEDbPmi3uGQbyHwn2v-129" value="" style="shape=tableRow;horizontal=0;startSize=0;swimlaneHead=0;swimlaneBody=0;fillColor=none;collapsible=0;dropTarget=0;points=[[0,0.5],[1,0.5]];portConstraint=eastwest;top=0;left=0;right=0;bottom=0;shadow=1;strokeColor=#FF8330;" vertex="1" parent="uqkEDbPmi3uGQbyHwn2v-119">
          <mxGeometry y="120" width="180" height="30" as="geometry" />
        </mxCell>
        <mxCell id="uqkEDbPmi3uGQbyHwn2v-130" value="FK" style="shape=partialRectangle;connectable=0;fillColor=none;top=0;left=0;bottom=0;right=0;editable=1;overflow=hidden;shadow=1;strokeColor=#FF8330;" vertex="1" parent="uqkEDbPmi3uGQbyHwn2v-129">
          <mxGeometry width="30" height="30" as="geometry">
            <mxRectangle width="30" height="30" as="alternateBounds" />
          </mxGeometry>
        </mxCell>
        <mxCell id="uqkEDbPmi3uGQbyHwn2v-131" value="IDTipoInfraccion (INT)" style="shape=partialRectangle;connectable=0;fillColor=none;top=0;left=0;bottom=0;right=0;align=left;spacingLeft=6;overflow=hidden;shadow=1;strokeColor=#FF8330;" vertex="1" parent="uqkEDbPmi3uGQbyHwn2v-129">
          <mxGeometry x="30" width="150" height="30" as="geometry">
            <mxRectangle width="150" height="30" as="alternateBounds" />
          </mxGeometry>
        </mxCell>
        <mxCell id="uqkEDbPmi3uGQbyHwn2v-132" value="" style="shape=tableRow;horizontal=0;startSize=0;swimlaneHead=0;swimlaneBody=0;fillColor=none;collapsible=0;dropTarget=0;points=[[0,0.5],[1,0.5]];portConstraint=eastwest;top=0;left=0;right=0;bottom=0;shadow=1;strokeColor=#FF8330;" vertex="1" parent="uqkEDbPmi3uGQbyHwn2v-119">
          <mxGeometry y="150" width="180" height="30" as="geometry" />
        </mxCell>
        <mxCell id="uqkEDbPmi3uGQbyHwn2v-133" value="FK" style="shape=partialRectangle;connectable=0;fillColor=none;top=0;left=0;bottom=0;right=0;editable=1;overflow=hidden;shadow=1;strokeColor=#FF8330;" vertex="1" parent="uqkEDbPmi3uGQbyHwn2v-132">
          <mxGeometry width="30" height="30" as="geometry">
            <mxRectangle width="30" height="30" as="alternateBounds" />
          </mxGeometry>
        </mxCell>
        <mxCell id="uqkEDbPmi3uGQbyHwn2v-134" value="IDFecha(FECHA)" style="shape=partialRectangle;connectable=0;fillColor=none;top=0;left=0;bottom=0;right=0;align=left;spacingLeft=6;overflow=hidden;shadow=1;strokeColor=#FF8330;" vertex="1" parent="uqkEDbPmi3uGQbyHwn2v-132">
          <mxGeometry x="30" width="150" height="30" as="geometry">
            <mxRectangle width="150" height="30" as="alternateBounds" />
          </mxGeometry>
        </mxCell>
        <mxCell id="uqkEDbPmi3uGQbyHwn2v-135" value="" style="shape=tableRow;horizontal=0;startSize=0;swimlaneHead=0;swimlaneBody=0;fillColor=none;collapsible=0;dropTarget=0;points=[[0,0.5],[1,0.5]];portConstraint=eastwest;top=0;left=0;right=0;bottom=0;shadow=1;strokeColor=#FF8330;" vertex="1" parent="uqkEDbPmi3uGQbyHwn2v-119">
          <mxGeometry y="180" width="180" height="30" as="geometry" />
        </mxCell>
        <mxCell id="uqkEDbPmi3uGQbyHwn2v-136" value="" style="shape=partialRectangle;connectable=0;fillColor=none;top=0;left=0;bottom=0;right=0;editable=1;overflow=hidden;shadow=1;strokeColor=#FF8330;" vertex="1" parent="uqkEDbPmi3uGQbyHwn2v-135">
          <mxGeometry width="30" height="30" as="geometry">
            <mxRectangle width="30" height="30" as="alternateBounds" />
          </mxGeometry>
        </mxCell>
        <mxCell id="uqkEDbPmi3uGQbyHwn2v-137" value="Monto" style="shape=partialRectangle;connectable=0;fillColor=none;top=0;left=0;bottom=0;right=0;align=left;spacingLeft=6;overflow=hidden;shadow=1;strokeColor=#FF8330;" vertex="1" parent="uqkEDbPmi3uGQbyHwn2v-135">
          <mxGeometry x="30" width="150" height="30" as="geometry">
            <mxRectangle width="150" height="30" as="alternateBounds" />
          </mxGeometry>
        </mxCell>
        <mxCell id="uqkEDbPmi3uGQbyHwn2v-138" value="" style="shape=tableRow;horizontal=0;startSize=0;swimlaneHead=0;swimlaneBody=0;fillColor=none;collapsible=0;dropTarget=0;points=[[0,0.5],[1,0.5]];portConstraint=eastwest;top=0;left=0;right=0;bottom=0;shadow=1;strokeColor=#FF8330;" vertex="1" parent="uqkEDbPmi3uGQbyHwn2v-119">
          <mxGeometry y="210" width="180" height="30" as="geometry" />
        </mxCell>
        <mxCell id="uqkEDbPmi3uGQbyHwn2v-139" value="" style="shape=partialRectangle;connectable=0;fillColor=none;top=0;left=0;bottom=0;right=0;editable=1;overflow=hidden;shadow=1;strokeColor=#FF8330;" vertex="1" parent="uqkEDbPmi3uGQbyHwn2v-138">
          <mxGeometry width="30" height="30" as="geometry">
            <mxRectangle width="30" height="30" as="alternateBounds" />
          </mxGeometry>
        </mxCell>
        <mxCell id="uqkEDbPmi3uGQbyHwn2v-140" value="EstadoDeuda" style="shape=partialRectangle;connectable=0;fillColor=none;top=0;left=0;bottom=0;right=0;align=left;spacingLeft=6;overflow=hidden;shadow=1;strokeColor=#FF8330;" vertex="1" parent="uqkEDbPmi3uGQbyHwn2v-138">
          <mxGeometry x="30" width="150" height="30" as="geometry">
            <mxRectangle width="150" height="30" as="alternateBounds" />
          </mxGeometry>
        </mxCell>
        <mxCell id="uqkEDbPmi3uGQbyHwn2v-141" value="" style="shape=tableRow;horizontal=0;startSize=0;swimlaneHead=0;swimlaneBody=0;fillColor=none;collapsible=0;dropTarget=0;points=[[0,0.5],[1,0.5]];portConstraint=eastwest;top=0;left=0;right=0;bottom=0;shadow=1;strokeColor=#FF8330;" vertex="1" parent="uqkEDbPmi3uGQbyHwn2v-119">
          <mxGeometry y="240" width="180" height="30" as="geometry" />
        </mxCell>
        <mxCell id="uqkEDbPmi3uGQbyHwn2v-142" value="" style="shape=partialRectangle;connectable=0;fillColor=none;top=0;left=0;bottom=0;right=0;editable=1;overflow=hidden;shadow=1;strokeColor=#FF8330;" vertex="1" parent="uqkEDbPmi3uGQbyHwn2v-141">
          <mxGeometry width="30" height="30" as="geometry">
            <mxRectangle width="30" height="30" as="alternateBounds" />
          </mxGeometry>
        </mxCell>
        <mxCell id="uqkEDbPmi3uGQbyHwn2v-143" value="Tracsurso" style="shape=partialRectangle;connectable=0;fillColor=none;top=0;left=0;bottom=0;right=0;align=left;spacingLeft=6;overflow=hidden;shadow=1;strokeColor=#FF8330;" vertex="1" parent="uqkEDbPmi3uGQbyHwn2v-141">
          <mxGeometry x="30" width="150" height="30" as="geometry">
            <mxRectangle width="150" height="30" as="alternateBounds" />
          </mxGeometry>
        </mxCell>
        <mxCell id="uqkEDbPmi3uGQbyHwn2v-144" value="" style="edgeStyle=entityRelationEdgeStyle;fontSize=12;html=1;endArrow=ERmandOne;startArrow=ERmandOne;rounded=0;entryX=0;entryY=0.5;entryDx=0;entryDy=0;exitX=1;exitY=0.5;exitDx=0;exitDy=0;" edge="1" parent="1" source="uqkEDbPmi3uGQbyHwn2v-132" target="uqkEDbPmi3uGQbyHwn2v-66">
          <mxGeometry width="100" height="100" relative="1" as="geometry">
            <mxPoint x="537" y="390" as="sourcePoint" />
            <mxPoint x="637" y="290" as="targetPoint" />
          </mxGeometry>
        </mxCell>
        <mxCell id="uqkEDbPmi3uGQbyHwn2v-145" value="" style="edgeStyle=entityRelationEdgeStyle;fontSize=12;html=1;endArrow=ERoneToMany;rounded=0;entryX=1;entryY=0.5;entryDx=0;entryDy=0;exitX=0;exitY=0.5;exitDx=0;exitDy=0;" edge="1" parent="1" source="uqkEDbPmi3uGQbyHwn2v-34" target="uqkEDbPmi3uGQbyHwn2v-116">
          <mxGeometry width="100" height="100" relative="1" as="geometry">
            <mxPoint x="537" y="390" as="sourcePoint" />
            <mxPoint x="637" y="290" as="targetPoint" />
          </mxGeometry>
        </mxCell>
        <mxCell id="uqkEDbPmi3uGQbyHwn2v-146" value="" style="edgeStyle=entityRelationEdgeStyle;fontSize=12;html=1;endArrow=ERmany;startArrow=ERmany;rounded=0;entryX=0;entryY=0.5;entryDx=0;entryDy=0;exitX=1;exitY=0.5;exitDx=0;exitDy=0;" edge="1" parent="1" source="uqkEDbPmi3uGQbyHwn2v-123" target="uqkEDbPmi3uGQbyHwn2v-21">
          <mxGeometry width="100" height="100" relative="1" as="geometry">
            <mxPoint x="537" y="390" as="sourcePoint" />
            <mxPoint x="637" y="290" as="targetPoint" />
          </mxGeometry>
        </mxCell>
        <mxCell id="uqkEDbPmi3uGQbyHwn2v-147" value="" style="edgeStyle=entityRelationEdgeStyle;fontSize=12;html=1;endArrow=ERoneToMany;startArrow=ERoneToMany;rounded=0;entryX=0;entryY=0.5;entryDx=0;entryDy=0;exitX=1;exitY=0.5;exitDx=0;exitDy=0;" edge="1" parent="1" source="uqkEDbPmi3uGQbyHwn2v-8" target="uqkEDbPmi3uGQbyHwn2v-126">
          <mxGeometry width="100" height="100" relative="1" as="geometry">
            <mxPoint x="537" y="390" as="sourcePoint" />
            <mxPoint x="637" y="290" as="targetPoint" />
          </mxGeometry>
        </mxCell>
        <mxCell id="uqkEDbPmi3uGQbyHwn2v-148" value="" style="edgeStyle=entityRelationEdgeStyle;fontSize=12;html=1;endArrow=ERmany;rounded=0;exitX=0;exitY=0.5;exitDx=0;exitDy=0;entryX=1;entryY=0.5;entryDx=0;entryDy=0;" edge="1" parent="1" source="uqkEDbPmi3uGQbyHwn2v-129" target="uqkEDbPmi3uGQbyHwn2v-53">
          <mxGeometry width="100" height="100" relative="1" as="geometry">
            <mxPoint x="537" y="390" as="sourcePoint" />
            <mxPoint x="637" y="290" as="targetPoint" />
          </mxGeometry>
        </mxCell>
        <mxCell id="uqkEDbPmi3uGQbyHwn2v-149" value="" style="edgeStyle=entityRelationEdgeStyle;fontSize=12;html=1;endArrow=ERoneToMany;rounded=0;entryX=1;entryY=0.5;entryDx=0;entryDy=0;exitX=0;exitY=0.5;exitDx=0;exitDy=0;" edge="1" parent="1" source="uqkEDbPmi3uGQbyHwn2v-49" target="uqkEDbPmi3uGQbyHwn2v-110">
          <mxGeometry width="100" height="100" relative="1" as="geometry">
            <mxPoint x="216" y="125" as="sourcePoint" />
            <mxPoint x="79" y="266" as="targetPoint" />
          </mxGeometry>
        </mxCell>
      </root>
    </mxGraphModel>
  </diagram>
</mxfile>
